# Blender 5.0.0
# www.blender.org
mtllib dice.mtl
o Cube
v 1.000000 1.000000 -1.000000
v 1.000000 -1.000000 -1.000000
v 1.000000 1.000000 1.000000
v 1.000000 -1.000000 1.000000
v -1.000000 1.000000 -1.000000
v -1.000000 -1.000000 -1.000000
v -1.000000 1.000000 1.000000
v -1.000000 -1.000000 1.000000
vn -0.0000 1.0000 -0.0000
vn -0.0000 -0.0000 1.0000
vn -1.0000 -0.0000 -0.0000
vn -0.0000 -1.0000 -0.0000
vn 1.0000 -0.0000 -0.0000
vn -0.0000 -0.0000 -1.0000
vt 0.672829 0.500971
vt 0.999096 0.503886
vt 0.999096 0.753886
vt 0.672829 0.750971
vt 0.334927 0.750971
vt 0.670244 0.750000
vt 0.670244 1.000000
vt 0.334927 1.000971
vt 0.375000 0.000000
vt 0.625000 0.000000
vt 0.625000 0.250000
vt 0.375000 0.250000
vt 0.000904 0.500000
vt 0.336220 0.501943
vt 0.336220 0.751943
vt 0.000904 0.750000
vt 0.340098 0.501943
vt 0.668951 0.502914
vt 0.668951 0.752914
vt 0.340098 0.751943
vt 0.625000 0.500000
vt 0.375000 0.500000
s 0
g Cube_Material.001
usemtl Material.001
f 1/1/1 5/2/1 7/3/1 3/4/1
f 4/5/2 3/6/2 7/7/2 8/8/2
f 8/9/3 7/10/3 5/11/3 6/12/3
f 6/13/4 2/14/4 4/15/4 8/16/4
f 2/17/5 1/18/5 3/19/5 4/20/5
f 6/12/6 5/11/6 1/21/6 2/22/6
